<svg width="128" height="128" viewBox="0 0 128 128" xmlns="http://www.w3.org/2000/svg">
  <circle cx="64" cy="64" r="64" fill="rgb(28, 30, 32)" id="circle1" />
  <path
    d="m 25.191967,80.800002 -24.0800001,-12.04 v -5.6 l 24.0800001,-12.04 v 4.872 l -17.3600001,8.512 q -1.064,0.504 -2.016,0.896 -0.896,0.336 -1.344,0.448 0.504,0.112 1.456,0.504 0.952,0.336 1.904,0.84 l 17.3600001,8.568 z"
    fill="#5be625"
    id="path1" />
  <path
    d="m 32.639988,84.440002 6.496,-40.88 h 13.16 q 5.712,0 8.568,3.304 2.856,3.248 2.016,8.736 -0.56,3.64 -2.576,6.384 -1.96,2.688 -4.984,4.2 -3.024,1.456 -6.832,1.456 h -8.12 l -2.688,16.8 z m 8.4,-21.336 h 8.12 q 3.304,0 5.6,-2.016 2.352,-2.072 2.912,-5.488 0.56,-3.472 -1.12,-5.488 -1.68,-2.016 -4.984,-2.016 h -8.12 z m 39.928022,21.336 q -3.808,0 -5.768,-2.184 -1.904,-2.24 -1.344,-5.936 l 2.856,-18.088 h -8.848 l 0.728,-4.592 h 8.848 l 1.4,-8.68 h 5.04 l -1.4,8.68 h 12.6 l -0.728,4.592 h -12.6 l -2.856,18.088 q -0.224,1.568 0.504,2.576 0.784,0.952 2.296,0.952 h 8.96 l -0.728,4.592 z"
    fill="#5be625"
    id="path2" />
  <path
    d="m 101.91203,80.800002 v -4.872 l 17.36,-8.512 q 1.064,-0.504 1.96,-0.84 0.952,-0.392 1.4,-0.504 -0.504,-0.112 -1.456,-0.504 -0.952,-0.392 -1.904,-0.84 l -17.36,-8.568 v -5.04 l 24.08,12.04 v 5.6 z"
    fill="#5be625"
    id="path3" />
  <line x1="32.629993" y1="93.120003" x2="95.070007" y2="93.120003" stroke="#5be625" stroke-width="3.84556" id="line1" />
</svg>
